<svg xmlns="http://www.w3.org/2000/svg" width="19" height="13" viewBox="0 0 19 13">
  <defs>
    <style>
      .cls-1 {
        fill: #444;
        fill-rule: evenodd;
      }
    </style>
  </defs>
  <path id="email.svg" class="cls-1" d="M1176.38,4867.04a0.344,0.344,0,0,1-.21-0.08l-3.52-3.19a0.287,0.287,0,0,1-.02-0.41,0.314,0.314,0,0,1,.44-0.01l3.52,3.18a0.279,0.279,0,0,1,.02.41A0.29,0.29,0,0,1,1176.38,4867.04Zm-11.76,0a0.29,0.29,0,0,1-.23-0.1,0.279,0.279,0,0,1,.02-0.41l3.52-3.18a0.314,0.314,0,0,1,.44.01,0.287,0.287,0,0,1-.02.41l-3.52,3.19A0.344,0.344,0,0,1,1164.62,4867.04Zm13.85,2.96h-15.94a1.507,1.507,0,0,1-1.53-1.48v-10.05a1.505,1.505,0,0,1,1.53-1.47h15.94a1.505,1.505,0,0,1,1.53,1.47v10.05A1.507,1.507,0,0,1,1178.47,4870Zm-15.94-12.41a0.9,0.9,0,0,0-.92.88v10.05a0.905,0.905,0,0,0,.92.89h15.94a0.912,0.912,0,0,0,.92-0.89v-10.05a0.9,0.9,0,0,0-.92-0.88h-15.94Zm7.97,7.39a1.763,1.763,0,0,1-1.13-.39l-7.86-6.61a0.279,0.279,0,0,1-.03-0.41,0.3,0.3,0,0,1,.43-0.03l7.87,6.6a1.171,1.171,0,0,0,1.44,0l7.86-6.59a0.3,0.3,0,0,1,.43.03,0.279,0.279,0,0,1-.03.41l-7.86,6.6A1.736,1.736,0,0,1,1170.5,4864.98Z" transform="translate(-1161 -4857)"/>
</svg>
