<svg id="icon1.svg" xmlns="http://www.w3.org/2000/svg" width="97.688" height="87.12" viewBox="0 0 97.688 87.12">
  <defs>
    <style>
      .cls-1 {
        fill: #e4e8fc;
      }

      .cls-1, .cls-2 {
        fill-rule: evenodd;
      }

      .cls-2 {
        fill: #3d60f4;
      }
    </style>
  </defs>
  <path id="icon_bg" data-name="icon bg" class="cls-1" d="M577.636,1375.16a50,50,0,0,1,22.393,67.07c-12.933,25.9-27.573-6.5-50.1-18.31-21.752-11.41-51.857-1.36-39.367-26.37A50,50,0,0,1,577.636,1375.16Z" transform="translate(-507.625 -1369.88)"/>
  <path id="icon" class="cls-2" d="M540.444,1433.08l0.18,5.96c8.564-1.3,8.622-8.76,8.622-8.76C543.832,1431.96,540.444,1433.08,540.444,1433.08Zm31.254-19.42a1.091,1.091,0,0,0-1.489.4l-1.726,3.03v-4.12a1.092,1.092,0,0,0-2.184,0v4.12l-1.725-3.03a1.092,1.092,0,0,0-1.49-.4,1.081,1.081,0,0,0-.409,1.48l3.767,6.61s0,0,.008.01,0.017,0.03.026,0.04,0.018,0.03.027,0.04,0.023,0.03.036,0.05l0.028,0.03c0.014,0.02.027,0.03,0.042,0.05,0,0,.007,0,0.01.01a0.037,0.037,0,0,1,.019.02h0c0.014,0.01.028,0.03,0.043,0.04a0.055,0.055,0,0,0,.031.02,0.046,0.046,0,0,0,.028.02,0.043,0.043,0,0,0,.024.02,0.2,0.2,0,0,0,.058.04s0.007,0,.011.01a0.021,0.021,0,0,1,.021.01l0.117,0.06H567a0.381,0.381,0,0,0,.1.04h0.015a0.029,0.029,0,0,1,.026.01c0.028,0,.056.01,0.085,0.01a0.068,0.068,0,0,0,.043.01c0.035,0,.069.01,0.1,0.01h0.042c0.036,0,.07-0.01.1-0.01a0.071,0.071,0,0,0,.044-0.01c0.029,0,.057-0.01.085-0.01a0.028,0.028,0,0,1,.026-0.01h0.014a0.4,0.4,0,0,0,.1-0.04h0.023l0.116-.06a0.022,0.022,0,0,1,.022-0.01c0-.01.007-0.01,0.01-0.01a0.193,0.193,0,0,0,.059-0.04,0.043,0.043,0,0,0,.024-0.02,0.053,0.053,0,0,0,.028-0.02,0.058,0.058,0,0,0,.031-0.02c0.015-.01.029-0.03,0.043-0.04h0a0.041,0.041,0,0,1,.019-0.02s0.007-.01.011-0.01c0.014-.02.028-0.03,0.041-0.05l0.029-.03c0.012-.02.024-0.03,0.035-0.05s0.019-.03.028-0.04,0.018-.03.026-0.04,0-.01.008-0.01l3.767-6.61A1.081,1.081,0,0,0,571.7,1413.66Zm-29.93-2.1a1.092,1.092,0,0,0-1.092,1.09v5.47a1.092,1.092,0,0,0,2.184,0v-5.47A1.092,1.092,0,0,0,541.768,1411.56Zm-5.644-17.06-4.282-4.54a1.09,1.09,0,1,0-1.592,1.49l4.283,4.55a1.119,1.119,0,0,0,.8.34A1.094,1.094,0,0,0,536.124,1394.5Zm-2.4,4.99-6.068-1.51a1.1,1.1,0,0,0-1.323.8,1.088,1.088,0,0,0,.8,1.32l6.067,1.5a0.815,0.815,0,0,0,.264.04,1.1,1.1,0,0,0,1.06-.83A1.085,1.085,0,0,0,533.72,1399.49Zm0.509,5.63a1.094,1.094,0,0,0-1.369-.71l-5.965,1.87a1.09,1.09,0,0,0,.328,2.13,0.933,0.933,0,0,0,.327-0.05l5.965-1.87A1.091,1.091,0,0,0,534.229,1405.12Zm59.544,1.7a66.722,66.722,0,0,0-2.766-16.18,1.088,1.088,0,0,0-.559-0.64,67.126,67.126,0,0,0-19.158-6.11,56.641,56.641,0,0,0-15.2-.31,42.21,42.21,0,0,0-13.653,3.71,7.659,7.659,0,0,0-3.938,3.93c-1.048,2.42-.85,5.39.581,8.8a22.851,22.851,0,0,0-2.37,9.69,17.367,17.367,0,0,0-.829,5.44c0,0.45.017,0.89,0.046,1.32-0.887,2.74-2.121,6.95-3,10a4.013,4.013,0,0,0,3.867,5.12h2.271a0.25,0.25,0,0,1,.249.24l0.379,12.57a4.071,4.071,0,0,0,4.5,3.91l5.176-.57,3.407-.35v8.52a1.093,1.093,0,0,0,1.093,1.09h23a1.09,1.09,0,1,0,0-2.18H554.961v-7.65l1.04-.11a5.137,5.137,0,0,0,4.632-5.12v-3.35a1.093,1.093,0,0,0-2.185,0v3.35a2.954,2.954,0,0,1-2.671,2.95l-1.781.19a1.011,1.011,0,0,0-.246-0.01l-9.794,1.07a1.839,1.839,0,0,1-1.436-.45,1.863,1.863,0,0,1-.644-1.36l-0.132-4.38a10.2,10.2,0,0,0,8.6-9.67,1.084,1.084,0,0,0-.446-0.88,1.057,1.057,0,0,0-.971-0.16c-3.434,1.06-6.016,1.89-7.439,2.35a2.421,2.421,0,0,0-2.418-2.18h-2.272a1.834,1.834,0,0,1-1.767-2.34c0.525-1.82,1.176-4.05,1.8-6.13,1.074,2.96,2.965,4.89,5.163,4.89h2.923c3.426,0,6.11-4.69,6.11-10.68a17.873,17.873,0,0,0-.864-5.66h2.611a1.09,1.09,0,1,0,0-2.18h-3.605c-0.14-.23-0.286-0.45-0.437-0.65H552.1a1.09,1.09,0,1,0,0-2.18h-10.1a4.079,4.079,0,0,0-2.532.93,24.3,24.3,0,0,1,4.213-8.73,13.793,13.793,0,0,0,1.418,2.07c2.571,3.11,6.442,5.05,11.522,5.77a12.661,12.661,0,0,0,.644,14.38,12.83,12.83,0,0,0,5.74,4.24v9.53a4.4,4.4,0,0,0,8.79,0v-9.53a12.822,12.822,0,0,0,5.739-4.24,12.672,12.672,0,0,0-.483-15.92,12.728,12.728,0,0,0-7.592-4.26,1.089,1.089,0,1,0-.352,2.15,10.5,10.5,0,0,1,1.285,20.44,1.1,1.1,0,0,0-.782,1.05v4.17h-4.421v-4.17a1.1,1.1,0,0,0-.782-1.05,10.564,10.564,0,0,1-7.535-10.07,10.45,10.45,0,0,1,2.453-6.76,1.21,1.21,0,0,0,.219-0.26,10.5,10.5,0,0,1,6.148-3.35,1.089,1.089,0,1,0-.352-2.15,12.676,12.676,0,0,0-7.162,3.79c-5.137-.5-8.963-2.22-11.375-5.12a13.173,13.173,0,0,1-2.843-8.4,42.859,42.859,0,0,1,12.5-3.26c7.387-.85,19.011-0.48,32.609,6.02,0.094,0.32.23,0.79,0.392,1.4,0.075,1.45.734,17.19-4.977,28.73a1.09,1.09,0,0,0,.5,1.46,1.043,1.043,0,0,0,.483.11,1.084,1.084,0,0,0,.98-0.61c3.063-6.18,4.378-13.37,4.92-19.15,0.1,1.04.183,2.12,0.232,3.23,0.3,6.92-.636,16.11-6.332,22.61l0.257-1.75a1.092,1.092,0,0,0-2.034-.69c-0.028.05-2.452,4.34-5.336,6.51-0.134-.68-0.3-1.52-0.465-2.35-0.226-1.14-.41-2.05-0.548-2.7-0.082-.39-0.149-0.69-0.2-0.9-0.03-.13-0.055-0.23-0.073-0.3a1.119,1.119,0,0,0-1.229-.87,1.1,1.1,0,0,0-.947,1.23,1.035,1.035,0,0,0,.118.41c0.213,0.91.9,4.36,1.5,7.45a1.1,1.1,0,0,0,.585.77,1.046,1.046,0,0,0,.488.11,1.017,1.017,0,0,0,.48-0.11,9.192,9.192,0,0,0,1.394-.85l1.433,20.5a1.091,1.091,0,0,0,1.088,1.01h0.077a1.1,1.1,0,0,0,1.014-1.17l-1.543-22.07c0-.03-0.006-0.06-0.011-0.09,0.485-.5.941-1.03,1.36-1.55l-0.042.29a1.087,1.087,0,0,0,.548,1.11,1.1,1.1,0,0,0,1.236-.12,25.165,25.165,0,0,0,7.9-12.54A43.552,43.552,0,0,0,593.773,1406.82Zm-45.85,25.01a7.991,7.991,0,0,1-6.246,5.9l-0.117-3.87C542.583,1433.53,544.8,1432.81,547.923,1431.83Zm-0.43-23.08a1,1,0,0,0,.135.27,14.569,14.569,0,0,1,1.213,6.13c0,4.04-1.346,7.09-2.841,8.12a16.684,16.684,0,0,0-.052-16.31A4.428,4.428,0,0,1,547.493,1408.75Zm-5.5-2.09c1.857,0,3.926,3.49,3.926,8.49s-2.069,8.5-3.926,8.5-3.926-3.49-3.926-8.5a15.372,15.372,0,0,1,.7-4.72,1.114,1.114,0,0,0,.11-0.32C539.647,1407.96,540.859,1406.66,541.992,1406.66Zm0.56-12.1a29.269,29.269,0,0,0-2.069,2.92,7.908,7.908,0,0,1,.008-5.36,5.41,5.41,0,0,1,1.309-1.85,16.038,16.038,0,0,0,.865,4.18A0.834,0.834,0,0,0,542.552,1394.56Zm22.629,34.15H569.6v0.87h-4.421v-0.87Zm0,3.05H569.6v0.91a2.211,2.211,0,0,1-4.421,0v-0.91h0Zm14.924-41.53c-13.311-3.11-24.418-2.95-32.12.48-0.091.04-.191,0.08-0.248,0.1a1.095,1.095,0,0,0,.25,2.16,2.072,2.072,0,0,0,.887-0.27c7.263-3.23,17.889-3.35,30.732-.34A1.094,1.094,0,0,0,580.105,1390.23Zm-13.54,2.53a30.9,30.9,0,0,0-16.984,2.14,1.093,1.093,0,0,0,.469,2.08,1.117,1.117,0,0,0,.467-0.11,29.166,29.166,0,0,1,15.669-1.97A1.087,1.087,0,1,0,566.565,1392.76Z" transform="translate(-507.625 -1369.88)"/>
</svg>
