<svg id="icon2.svg" xmlns="http://www.w3.org/2000/svg" width="97.685" height="87.12" viewBox="0 0 97.685 87.12">
  <defs>
    <style>
      .cls-1 {
        fill: #e4e8fc;
      }

      .cls-1, .cls-2 {
        fill-rule: evenodd;
      }

      .cls-2 {
        fill: #3d60f4;
      }
    </style>
  </defs>
  <path id="icon_bg_" data-name="icon bg " class="cls-1" d="M982.636,1375.16a50,50,0,0,1,22.394,67.07c-12.934,25.9-27.574-6.5-50.1-18.31-21.752-11.41-51.857-1.36-39.367-26.37A50,50,0,0,1,982.636,1375.16Z" transform="translate(-912.625 -1369.88)"/>
  <path id="icon" class="cls-2" d="M992.381,1392H928.619a2.638,2.638,0,0,0-2.619,2.65v48.94a2.638,2.638,0,0,0,2.619,2.65h24.048v8.53H942.282a1.115,1.115,0,0,0,0,2.23h36.435a1.115,1.115,0,0,0,0-2.23H968.333v-8.53h24.048a2.638,2.638,0,0,0,2.619-2.65v-48.94A2.638,2.638,0,0,0,992.381,1392Zm-26.251,62.77H954.869v-8.53H966.13v8.53Zm26.668-11.18a0.423,0.423,0,0,1-.417.42H928.619a0.423,0.423,0,0,1-.417-0.42v-48.94a0.423,0.423,0,0,1,.417-0.42h63.762a0.423,0.423,0,0,1,.417.42v48.94Zm-3.454-8.65H931.655a1.115,1.115,0,0,0,0,2.23h57.689A1.115,1.115,0,0,0,989.344,1434.94Zm-45.042-8.15a31.828,31.828,0,0,0,32.4,0,32.539,32.539,0,0,0,11.522-11.64,1.129,1.129,0,0,0,0-1.13,32.539,32.539,0,0,0-11.522-11.64,31.828,31.828,0,0,0-32.4,0,32.531,32.531,0,0,0-11.522,11.64,1.129,1.129,0,0,0,0,1.13A32.531,32.531,0,0,0,944.3,1426.79Zm15.769,2.2a14.418,14.418,0,0,1,0-28.81h0.858a14.418,14.418,0,0,1,0,28.81h-0.858Zm25.914-14.41a30.132,30.132,0,0,1-14.333,12.21,16.746,16.746,0,0,0,0-24.41A30.166,30.166,0,0,1,985.985,1414.58Zm-36.638-12.2a16.746,16.746,0,0,0,0,24.41,30.13,30.13,0,0,1-14.332-12.21A30.163,30.163,0,0,1,949.347,1402.38Zm18.481,12.2a7.444,7.444,0,0,0-.649-3.05,1.1,1.1,0,0,0-1.457-.56,1.129,1.129,0,0,0-.55,1.48,5.115,5.115,0,1,1-4.672-3.06,5.113,5.113,0,0,1,2.108.46,1.089,1.089,0,0,0,1.457-.55,1.126,1.126,0,0,0-.55-1.48,7.3,7.3,0,0,0-3.015-.66A7.421,7.421,0,1,0,967.828,1414.58Z" transform="translate(-912.625 -1369.88)"/>
</svg>
