<svg id="icon3.svg" xmlns="http://www.w3.org/2000/svg" width="97.68" height="87.12" viewBox="0 0 97.68 87.12">
  <defs>
    <style>
      .cls-1 {
        fill: #e4e8fc;
      }

      .cls-1, .cls-2 {
        fill-rule: evenodd;
      }

      .cls-2 {
        fill: #3d60f4;
      }
    </style>
  </defs>
  <path id="icon_bg" data-name="icon bg" class="cls-1" d="M1382.64,1375.16a50,50,0,0,1,22.39,67.07c-12.93,25.9-27.57-6.5-50.1-18.31-21.75-11.41-51.86-1.36-39.37-26.37A50.01,50.01,0,0,1,1382.64,1375.16Z" transform="translate(-1312.63 -1369.88)"/>
  <path id="Icon" class="cls-2" d="M1387.13,1409.88h-1.38a5.345,5.345,0,0,0-2.36.55l3.27-17.1,1.83-9.53a1.392,1.392,0,0,0-1.1-1.62,2.112,2.112,0,0,0-.26-0.02h-33.14a1.383,1.383,0,0,0-1.38,1.38,1.09,1.09,0,0,0,.03.26l1.82,9.53,3.28,17.1a5.377,5.377,0,0,0-2.36-.55h-7.41a5.555,5.555,0,0,0-2.24.47l-9.68,4.32v-0.64a1.385,1.385,0,0,0-1.39-1.38h-8.28a1.383,1.383,0,0,0-1.38,1.38v41.58a1.385,1.385,0,0,0,1.38,1.39h8.28a1.387,1.387,0,0,0,1.39-1.39v-1.38h33.61a30,30,0,0,0,21.38-8.89,5.489,5.489,0,0,0,1.61-3.92v-26A5.529,5.529,0,0,0,1387.13,1409.88Zm-53.85,44.35h-5.52v-38.81h5.52v38.81Zm52.18-69.3-1.23,6.4a8.345,8.345,0,0,1-5.27-6.4h6.5Zm-29.79,0h6.49a8.307,8.307,0,0,1-5.27,6.4Zm1.75,9.15a11.065,11.065,0,0,0,7.52-9.15h11.24a11.092,11.092,0,0,0,7.53,9.15l-4.5,23.47a2.726,2.726,0,0,1-1.74.64h-13.81a2.686,2.686,0,0,1-1.74-.64Zm32.47,26.28a22.121,22.121,0,0,1-12.07,5.88l-11.6,1.67,0.4,2.74,11.59-1.66a25.006,25.006,0,0,0,11.68-4.99v3.29a22.121,22.121,0,0,1-12.07,5.88l-11.6,1.67,0.4,2.74,11.59-1.66a25.006,25.006,0,0,0,11.68-4.99v3.29a22.121,22.121,0,0,1-12.07,5.88l-11.6,1.67,0.4,2.74,11.59-1.66a25.006,25.006,0,0,0,11.68-4.99v3.56a2.779,2.779,0,0,1-.81,1.96,27.222,27.222,0,0,1-19.42,8.08h-33.61v-33.75l10.8-4.82a2.684,2.684,0,0,1,1.12-.24h7.41a2.768,2.768,0,0,1,2.76,2.77,5.529,5.529,0,0,0,5.52,5.54h13.81a5.529,5.529,0,0,0,5.52-5.54,2.768,2.768,0,0,1,2.76-2.77h1.38a2.761,2.761,0,0,1,2.76,2.77v4.94Zm-19.33-17.41a6.93,6.93,0,1,0,6.91,6.93A6.914,6.914,0,0,0,1370.56,1402.95Zm0,11.08a4.155,4.155,0,1,1,4.15-4.15A4.15,4.15,0,0,1,1370.56,1414.03Zm15.22-5.84,5.52-24.95,2.7,0.6-5.52,24.95ZM1359.52,1378h-12.43a1.385,1.385,0,0,0-1.38,1.39,1.219,1.219,0,0,0,.04.32l6.9,29.1,2.69-.64-6.5-27.4h10.68V1378Z" transform="translate(-1312.63 -1369.88)"/>
</svg>
