<svg xmlns="http://www.w3.org/2000/svg" width="21" height="19.62" viewBox="0 0 21 19.62">
  <defs>
    <style>
      .cls-1 {
        fill-rule: evenodd;
      }
    </style>
  </defs>
  <path id="link.svg" class="cls-1" d="M291.1,2400.77a0.6,0.6,0,0,0,0,.84,2.463,2.463,0,0,1,0,3.47l-5,5.02a2.431,2.431,0,0,1-3.454,0l-0.752-.75a2.463,2.463,0,0,1,0-3.47l5-5.03a0.587,0.587,0,0,0-.831-0.83l-5,5.02a3.643,3.643,0,0,0,0,5.14l0.753,0.76a3.615,3.615,0,0,0,5.115,0l5-5.03a3.653,3.653,0,0,0,0-5.14A0.587,0.587,0,0,0,291.1,2400.77Zm8.843-6.6-0.753-.75a3.6,3.6,0,0,0-5.115,0l-5,5.02a3.653,3.653,0,0,0,0,5.14,0.587,0.587,0,0,0,.831,0,0.6,0.6,0,0,0,0-.84,2.463,2.463,0,0,1,0-3.47l5-5.02a2.431,2.431,0,0,1,3.454,0l0.752,0.76a2.463,2.463,0,0,1,0,3.47l-5,5.02a0.589,0.589,0,1,0,.826.84l5-5.03A3.648,3.648,0,0,0,299.943,2394.17Z" transform="translate(-280 -2392.38)"/>
</svg>
