<svg xmlns="http://www.w3.org/2000/svg" width="15.44" height="23" viewBox="0 0 15.44 23">
  <defs>
    <style>
      .cls-1 {
        fill: #444;
        fill-rule: evenodd;
      }
    </style>
  </defs>
  <path id="location.svg" class="cls-1" d="M1170.57,4717.04a2.943,2.943,0,1,0,2.82,2.94A2.889,2.889,0,0,0,1170.57,4717.04Zm0,5.04a2.1,2.1,0,1,1,2.02-2.1A2.056,2.056,0,0,1,1170.57,4722.08Zm5.39-7.72a7.5,7.5,0,0,0-10.92,0,9.477,9.477,0,0,0-.73,11.32l6.19,9.32,6.18-9.31A9.475,9.475,0,0,0,1175.96,4714.36Zm0.07,10.84-5.53,8.32-5.54-8.33a8.573,8.573,0,0,1,.65-10.24,6.721,6.721,0,0,1,9.78,0A8.571,8.571,0,0,1,1176.03,4725.2Z" transform="translate(-1162.78 -4712)"/>
</svg>
