<svg xmlns="http://www.w3.org/2000/svg" width="17.78" height="17.97" viewBox="0 0 17.78 17.97">
  <defs>
    <style>
      .cls-1 {
        fill: #444;
        fill-rule: evenodd;
      }
    </style>
  </defs>
  <path id="phone.svg" class="cls-1" d="M1175.47,4802a7.436,7.436,0,0,1-2.61-.57,19.564,19.564,0,0,1-6.6-4.56,19.776,19.776,0,0,1-4.52-6.67c-0.74-1.98-.74-3.6,0-4.35,0.1-.1.21-0.22,0.32-0.34a3.505,3.505,0,0,1,2.44-1.48,2.939,2.939,0,0,1,2.05,1.33c2.03,2.56,1.11,3.47.05,4.52l-0.18.19c-0.18.17-.5,0.98,2.54,4.07a17.524,17.524,0,0,0,2.52,2.18c0.43,0.28,1.19.71,1.51,0.39l0.19-.19c1.04-1.07,1.94-1.99,4.46.06a2.935,2.935,0,0,1,1.32,2.07,3.478,3.478,0,0,1-1.47,2.46c-0.11.12-.23,0.23-0.33,0.33A2.327,2.327,0,0,1,1175.47,4802Zm-11.05-17.36a3.166,3.166,0,0,0-1.93,1.29c-0.11.12-.22,0.24-0.33,0.35-0.55.55-.49,2.01,0.14,3.71a19.247,19.247,0,0,0,4.38,6.45,18.87,18.87,0,0,0,6.39,4.43c1.68,0.64,3.12.7,3.66,0.14,0.11-.11.23-0.22,0.35-0.34a3.053,3.053,0,0,0,1.28-1.99,2.45,2.45,0,0,0-1.09-1.63c-2.1-1.71-2.69-1.11-3.67-.11l-0.19.2c-0.46.47-1.22,0.36-2.25-.31a17.325,17.325,0,0,1-2.62-2.27c-2.53-2.55-3.34-4.12-2.55-4.92l0.19-.19c1-.99,1.6-1.58-0.1-3.71a2.4,2.4,0,0,0-1.61-1.1h-0.05Z" transform="translate(-1161.19 -4784.03)"/>
</svg>
